# Blender v2.72 (sub 0) OBJ File: 'cargo_ship.blend'
# www.blender.org
mtllib cargo_ship.mtl
o Cube.001
v 1.000000 0.200000 -3.497523
v -1.000000 0.200000 -3.497523
v -1.000000 0.200000 -5.497523
v 1.000000 0.200000 -5.497523
v 1.000000 2.200000 -3.497523
v -1.000000 2.200000 -3.497523
v -1.000000 2.200000 -5.497523
v 1.000000 2.200000 -5.497523
v -2.000000 -1.000000 -6.232642
v 2.000000 -1.000000 -6.232642
v 2.000000 -1.000000 3.654249
v -2.000001 -1.000000 3.654246
v -1.999999 1.000000 -6.232645
v 2.000001 1.000000 -6.232638
v 1.999999 1.000000 6.232645
v -2.000000 1.000000 6.232642
v 0.000005 -1.000000 -6.900820
v -0.564966 1.000000 -7.490551
v 0.564977 1.000000 -7.490544
v -0.000003 -0.673041 6.740909
v -0.000006 1.195257 8.204809
v 1.507638 1.172605 7.286841
v -1.507644 1.172605 7.286838
v -1.670142 0.556803 -5.204703
v 1.670144 0.556803 -5.204698
v -1.670143 0.556803 5.204701
v 1.670142 0.556803 5.204703
vt 0.791802 0.509141
vt 0.791801 0.387673
vt 0.921053 0.387673
vt 0.921053 0.509141
vt 0.921053 0.630608
vt 0.791802 0.630608
vt 0.646209 0.944175
vt 0.646209 0.822708
vt 0.773356 0.822708
vt 0.773356 0.944175
vt 0.791802 0.752076
vt 0.921053 0.752076
vt 0.791801 0.873544
vt 0.921008 0.752076
vt 0.921008 0.873544
vt 0.517006 0.944175
vt 0.517006 0.822708
vt 0.258503 0.040567
vt 0.517006 0.040567
vt 0.517006 0.640827
vt 0.258503 0.640827
vt 0.021317 0.815166
vt 0.021317 0.183198
vt 0.237186 0.183198
vt 0.237186 0.815165
vt 0.000000 0.876839
vt 0.258503 0.876838
vt 0.165763 0.953207
vt 0.092740 0.953208
vt 0.525163 0.000000
vt 0.654404 0.001551
vt 0.644120 0.758554
vt 0.517006 0.600420
vt 0.258503 0.120056
vt 0.000000 0.120056
vt 0.031819 0.055769
vt 0.226684 0.055769
vt 0.791802 0.821157
vt 0.662561 0.822707
vt 0.654404 0.222288
vt 0.781517 0.064154
vt 0.933560 0.242935
vt 0.806413 0.242935
vt 0.791801 0.155780
vt 0.925798 0.121468
vt 0.791802 0.087155
vt 0.806413 0.000000
vt 0.933560 0.000000
vt 0.387755 0.000000
vt 0.654404 0.822708
vt 0.535588 0.788123
vt 0.672985 0.034585
vt 0.791802 0.000000
vt 0.387754 0.828750
vt 0.942716 0.242935
vt 0.942716 0.387673
vt 0.866333 0.330812
vt 0.129251 0.000000
vt 0.791801 0.271821
vt 0.971358 0.305366
vt 0.971358 0.937569
vt 0.942716 1.000000
vt 1.000000 0.305366
vt 1.000000 0.937569
vt 0.971358 1.000000
vt 0.971358 0.242935
vn 0.000000 0.000000 1.000000
vn -1.000000 0.000000 0.000000
vn 0.000000 0.000000 -1.000000
vn 1.000000 0.000000 0.000000
vn 0.000000 -1.000000 0.000000
vn 0.000000 1.000000 0.000000
vn 0.000000 0.986900 -0.161600
vn -0.479800 -0.193900 -0.855700
vn 0.000000 -0.282800 -0.959200
vn 0.479800 -0.193900 -0.855700
vn 0.636000 -0.621200 0.457800
vn -0.636000 -0.621200 0.457800
vn -0.000000 -0.994400 0.105300
vn 0.425400 -0.558200 0.712400
vn 0.000000 0.999700 -0.024700
vn -0.425400 -0.558200 0.712400
vn -0.000000 0.918300 0.395900
vn 0.802200 0.597100 0.000000
vn -0.802200 0.597100 -0.000000
vn 0.000000 0.918300 -0.395900
usemtl Material
s off
f 5/1/1 6/2/1 2/3/1 1/4/1
f 6/1/2 7/4/2 3/5/2 2/6/2
f 7/7/3 8/8/3 4/9/3 3/10/3
f 8/11/4 5/6/4 1/5/4 4/12/4
f 1/13/5 2/11/5 3/14/5 4/15/5
f 8/8/6 7/7/6 6/16/6 5/17/6
f 9/18/5 10/19/5 11/20/5 12/21/5
f 24/22/6 26/23/6 27/24/6 25/25/6
f 13/26/6 14/27/6 19/28/6 18/29/6
f 10/30/4 14/31/4 15/32/4 11/33/4
f 15/34/7 16/35/7 23/36/7 22/37/7
f 13/38/2 9/39/2 12/40/2 16/41/2
f 9/42/8 13/43/8 18/44/8 17/45/8
f 17/45/9 18/44/9 19/46/9
f 14/47/10 10/48/10 17/45/10 19/46/10
f 10/19/5 9/18/5 17/49/5
f 11/33/11 15/32/11 22/50/11 20/51/11
f 16/41/12 12/40/12 20/52/12 23/53/12
f 12/21/13 11/20/13 20/54/13
f 20/55/14 22/56/14 21/57/14
f 22/37/15 23/36/15 21/58/15
f 23/59/16 20/55/16 21/57/16
f 24/22/17 25/25/17 14/27/17 13/26/17
f 26/60/18 24/61/18 13/62/18 16/55/18
f 25/63/19 27/64/19 15/65/19 14/66/19
f 27/24/20 26/23/20 16/35/20 15/34/20
